<?xml version="1.0" standalone="no"?>
<!DOCTYPE svg PUBLIC "-//W3C//DTD SVG 20010904//EN"
 "http://www.w3.org/TR/2001/REC-SVG-20010904/DTD/svg10.dtd">
<svg version="1.0" xmlns="http://www.w3.org/2000/svg"
 width="270.000000pt" height="270.000000pt" viewBox="0 0 270.000000 270.000000"
 preserveAspectRatio="xMidYMid meet">
<metadata>
Created by potrace 1.14, written by Peter Selinger 2001-2017
</metadata>
<g transform="translate(0.000000,270.000000) scale(0.100000,-0.100000)"
fill="#000000" stroke="none">
<path d="M1297 2104 c-1 -1 -31 -4 -67 -8 -71 -6 -157 -29 -204 -53 -17 -9
-68 -50 -115 -91 -47 -42 -92 -81 -99 -87 -81 -65 -101 -106 -88 -185 7 -46
61 -149 88 -168 10 -8 29 -23 41 -35 12 -12 47 -42 77 -67 30 -25 60 -49 66
-55 6 -5 35 -30 64 -55 29 -25 58 -49 64 -55 6 -5 52 -44 101 -85 50 -41 101
-86 114 -99 l23 -24 224 225 c123 124 236 234 251 243 94 62 149 150 140 225
-9 76 -25 97 -136 179 -58 43 -116 88 -128 100 -40 38 -144 75 -248 88 -40 5
-164 10 -168 7z"/>
</g>
</svg>
